<svg width="728" height="606" viewBox="0 0 728 606" fill="none" xmlns="http://www.w3.org/2000/svg">
<line x1="94.1393" y1="384.742" x2="83.6223" y2="388.248" stroke="black" stroke-width="3.50565"/>
<line x1="104.656" y1="416.293" x2="94.1389" y2="419.798" stroke="black" stroke-width="3.50565"/>
<rect x="42.2247" y="342.873" width="29.5508" height="148.743" rx="14.7754" transform="rotate(-15 42.2247 342.873)" fill="#E9E9E5" stroke="black" stroke-width="2"/>
<line x1="659.893" y1="213.846" x2="659.893" y2="280.453" stroke="black" stroke-width="3.50565"/>
<path d="M79 194.011C79 190.691 81.6913 188 85.0113 188H108.551V231.573H85.0113C81.6914 231.573 79 228.882 79 225.562V194.011Z" fill="#E9E9E5" stroke="black" stroke-width="2"/>
<path d="M604 211H659.09C664.346 211 668.607 215.261 668.607 220.517V269.596C668.607 274.852 664.346 279.113 659.09 279.113H604V211Z" fill="#E9E9E5" stroke="black" stroke-width="2"/>
<path d="M624 303C624 458.779 502.188 585 352 585C201.812 585 80 458.779 80 303C80 147.221 201.812 21 352 21C502.188 21 624 147.221 624 303Z" fill="black" fill-opacity="0.84" stroke="black" stroke-width="2"/>
<g filter="url(#filter0_b_64_517)">
<path d="M611.893 303C611.893 452.438 495.159 572.889 352 572.889C208.841 572.889 92.1066 452.438 92.1066 303C92.1066 153.562 208.841 33.1107 352 33.1107C495.159 33.1107 611.893 153.562 611.893 303Z" stroke="#E9E9E5" stroke-width="22.2131"/>
</g>
<path d="M104.845 224.848C101.187 225.573 99.0921 220.829 102.092 218.613L144.895 186.997C145.539 186.522 146.219 186.097 146.929 185.727L212.891 151.353L249.911 133.961L268.869 126.704C278.413 123.051 288.368 120.58 298.512 119.346L313.442 117.529L342.081 116.178L375.296 117.345L408.357 121.081L424.799 123.067C435.118 124.314 445.241 126.84 454.936 130.588L472.661 137.44L504.561 153.552L530.372 170.897L549.997 183.877L569.273 200.219C571.513 202.119 573.214 204.574 574.205 207.339L575.852 211.934C580.639 225.29 565.949 237.227 553.855 229.809C552.578 229.026 551.191 228.438 549.74 228.065L529.368 222.829C520.884 220.648 512.653 217.584 504.809 213.686L485.113 203.897L479.289 200.598C463.668 191.752 444.873 190.485 428.206 197.156C419.374 200.691 411.525 206.307 405.328 213.525L392.033 229.012C387.073 234.789 381.178 239.691 374.593 243.513C361.034 251.382 345.171 254.319 329.694 251.825L318.957 250.096L310.156 248.112C301.393 246.136 295.116 238.424 294.96 229.442L294.93 227.655C294.87 224.228 293.605 220.931 291.356 218.344C286.475 212.729 278.149 211.691 272.039 215.935L253.692 228.679C248.378 232.37 242.238 234.699 235.812 235.46L204.51 239.167L155.401 250.174C149.992 251.387 144.354 249.535 140.717 245.351C136.159 240.107 135.771 232.428 139.78 226.752L143.44 221.569C145.336 218.884 147.782 216.633 150.614 214.966L164.094 207.031C169.569 203.809 175.488 201.41 181.661 199.912C191.721 197.47 201.048 192.651 208.86 185.86L216.58 179.15C217.54 178.315 218.348 177.319 218.968 176.208C223.203 168.621 217.381 159.35 208.708 159.868L206.155 160.021C203.882 160.157 201.691 160.915 199.821 162.214L161.031 189.15L106.05 224.363C105.682 224.599 105.273 224.763 104.845 224.848Z" fill="url(#paint0_linear_64_517)"/>
<path d="M608.858 357.404C612.573 356.247 615.374 360.816 612.656 363.601L578.95 398.146C578.282 398.831 577.553 399.455 576.773 400.01L520.691 439.87L488.596 460.486L473.727 468.379C463.94 473.575 453.506 477.449 442.699 479.899L430.179 482.738L402.337 486.843L369.368 488.927L335.909 488.484L318.192 488.116C308.42 487.913 298.705 486.566 289.246 484.104L268.571 478.722L233.175 466.055L203.463 451.589L180.924 440.794L156.852 426.036C154.847 424.807 153.148 423.138 151.885 421.156L148.915 416.496C141.559 404.955 153.652 390.888 166.166 396.428C167.307 396.933 168.512 397.281 169.746 397.463L192.989 400.887C200.909 402.054 208.699 403.977 216.252 406.631L239.779 414.898L250.779 419.368C265.548 425.369 282.237 424.375 296.188 416.662C304.782 411.911 311.881 404.857 316.685 396.293L324.788 381.85C328.433 375.353 333.312 369.63 339.151 365.004C350.168 356.274 364.014 351.907 378.046 352.736L391.759 353.547L401.21 354.669C410.414 355.761 418.034 362.332 420.468 371.275L421.007 373.257C421.91 376.572 423.832 379.519 426.502 381.681C432.91 386.87 442.177 386.484 448.131 380.78L460.614 368.824C465.358 364.279 471.256 361.119 477.669 359.688L507.081 353.123L551.871 337.848C557.433 335.951 563.58 337.045 568.146 340.743C574.079 345.547 576.107 353.701 573.116 360.724L571.835 363.734C570.453 366.979 568.292 369.832 565.544 372.041L554.981 380.533C550.312 384.286 545.056 387.243 539.424 389.284L539.194 389.367C530.035 392.687 521.954 398.442 515.823 406.013L510.501 412.585C509.53 413.785 508.807 415.166 508.377 416.649C506 424.827 512.95 432.694 521.359 431.344L524.363 430.861C527.075 430.426 529.591 429.175 531.575 427.274L562.308 397.844L607.499 358.166C607.894 357.819 608.357 357.56 608.858 357.404Z" fill="url(#paint1_linear_64_517)"/>
<path d="M376.712 565.281C378.698 568.568 374.844 572.262 371.644 570.139L326.104 539.926C325.415 539.469 324.763 538.959 324.154 538.401L267.826 486.765L238.046 457.111L224.128 441.041C217.427 433.304 211.7 424.774 207.075 415.643L199.903 401.484L188.561 374.268L178.05 341.74L170.074 308.451L166.126 291.397C163.785 281.28 162.71 270.912 162.928 260.53L163.349 240.494L167.739 203.957L175.456 172.872L181.122 149.311L190.168 124.877C191.213 122.054 192.98 119.555 195.294 117.63L199.163 114.409C210.376 105.076 227.081 115.073 224.155 129.365C223.847 130.87 223.765 132.413 223.913 133.942L226.031 155.902C226.871 164.607 226.797 173.377 225.809 182.067L223.206 204.979L222.044 211.865C218.979 230.038 224.34 248.619 236.616 262.366C243.139 269.67 251.333 275.287 260.498 278.736L280.083 286.107C287.411 288.865 294.221 292.838 300.228 297.861C312.577 308.186 320.969 322.469 323.977 338.282L326.077 349.324L327.244 358.541C328.407 367.715 323.159 376.498 314.53 379.823L312.811 380.485C309.52 381.753 306.779 384.138 305.07 387.223C301.352 393.93 303.28 402.36 309.544 406.784L328.236 419.987C333.676 423.829 338.085 428.951 341.075 434.901L355.622 463.85L383.46 507.433C386.533 512.245 386.723 518.354 383.955 523.347C380.484 529.61 373.185 532.693 366.275 530.817L360.031 529.121C356.763 528.234 353.722 526.66 351.111 524.504L338.733 514.283C333.699 510.127 329.306 505.25 325.695 499.811C319.81 490.946 311.881 483.626 302.575 478.468L293.403 473.384C292.254 472.747 291.003 472.315 289.705 472.107C280.881 470.691 273.97 479.574 277.511 487.779L278.557 490.203C279.488 492.361 280.996 494.22 282.916 495.576L322.524 523.559L375.817 564.283C376.176 564.557 376.479 564.895 376.712 565.281Z" fill="url(#paint2_linear_64_517)"/>
<path d="M371.539 43.7635C370.123 40.3936 374.316 37.484 376.978 39.9891L417.27 77.9115C417.808 78.4177 418.308 78.9626 418.766 79.5418L466.422 139.789L491.246 173.814L502.865 192.326C508.089 200.649 512.316 209.559 515.457 218.871L520.595 234.101L527.843 262.136L533.548 295.035L536.685 328.147L538.089 344.298C539.007 354.864 538.579 365.505 536.816 375.963L533.802 393.836L524.473 427.554L512.669 455.446L503.9 476.624L492.021 497.434C490.425 500.231 488.078 502.526 485.245 504.059L481.219 506.239C468.587 513.077 454.231 500.597 459.245 487.137C459.807 485.627 460.131 484.039 460.206 482.43L461.136 462.376C461.556 453.328 462.956 444.352 465.313 435.606L470.726 415.51L472.138 411.248C478.06 393.369 475.546 373.769 465.305 357.963C460.197 350.079 453.367 343.457 445.329 338.596L426.469 327.19C419.885 323.208 413.97 318.212 408.942 312.387C398.24 299.989 392.007 284.36 391.239 268L390.783 258.292L390.924 249.477C391.065 240.608 397.548 233.119 406.305 231.708L407.978 231.439C411.348 230.896 414.399 229.129 416.547 226.477C421.022 220.951 420.589 212.935 415.546 207.922L398.146 190.626C393.604 186.111 390.182 180.595 388.154 174.521L377.948 143.953L356.778 96.7637C354.57 91.8402 355.318 86.093 358.714 81.8993C362.912 76.7158 370.133 75.1191 376.125 78.0498L383.004 81.4149C385.866 82.8145 388.419 84.7712 390.514 87.1704L401.393 99.6289C405.678 104.536 409.256 110.017 412.023 115.915C416.508 125.476 423.103 133.896 431.31 140.543L439.901 147.499C440.809 148.235 441.831 148.817 442.926 149.222C451.108 152.252 459.292 144.768 457.005 136.349L456.384 134.067C455.835 132.046 454.765 130.205 453.279 128.728L418.378 94.027L372.19 44.7677C371.915 44.4743 371.694 44.1343 371.539 43.7635Z" fill="url(#paint3_linear_64_517)"/>
<defs>
<filter id="filter0_b_64_517" x="77.1064" y="18.1106" width="549.787" height="569.779" filterUnits="userSpaceOnUse" color-interpolation-filters="sRGB">
<feFlood flood-opacity="0" result="BackgroundImageFix"/>
<feGaussianBlur in="BackgroundImageFix" stdDeviation="1.94678"/>
<feComposite in2="SourceAlpha" operator="in" result="effect1_backgroundBlur_64_517"/>
<feBlend mode="normal" in="SourceGraphic" in2="effect1_backgroundBlur_64_517" result="shape"/>
</filter>
<linearGradient id="paint0_linear_64_517" x1="216.434" y1="84.1333" x2="454.891" y2="358.447" gradientUnits="userSpaceOnUse">
<stop stop-opacity="0"/>
<stop offset="1" stop-color="#D9D9D9"/>
</linearGradient>
<linearGradient id="paint1_linear_64_517" x1="533.934" y1="505.994" x2="231.05" y2="260.723" gradientUnits="userSpaceOnUse">
<stop stop-opacity="0"/>
<stop offset="1" stop-color="#D9D9D9"/>
</linearGradient>
<linearGradient id="paint2_linear_64_517" x1="201.626" y1="507.083" x2="383.147" y2="179.61" gradientUnits="userSpaceOnUse">
<stop stop-opacity="0"/>
<stop offset="1" stop-color="#D9D9D9"/>
</linearGradient>
<linearGradient id="paint3_linear_64_517" x1="533.554" y1="133.771" x2="311.82" y2="407.59" gradientUnits="userSpaceOnUse">
<stop stop-opacity="0"/>
<stop offset="1" stop-color="#D9D9D9"/>
</linearGradient>
</defs>
</svg>
