<svg width="476" height="47" viewBox="0 0 476 47" fill="none" xmlns="http://www.w3.org/2000/svg">
<path d="M46.9981 22.9566C47.2112 35.1668 37.1549 45.2868 24.4815 45.508C11.8082 45.7293 1.40473 35.9663 1.1916 23.7561C0.97847 11.546 11.0348 1.42591 23.7082 1.20469C36.3815 0.983479 46.785 10.7464 46.9981 22.9566Z" fill="#323232" stroke="black" stroke-width="1.5825"/>
<path d="M46.8551 22.972C47.0667 35.0964 37.0788 45.146 24.4911 45.3657C11.9034 45.5854 1.57081 35.8905 1.35918 23.7661C1.14755 11.6417 11.1355 1.59216 23.7232 1.37244C36.3109 1.15272 46.6435 10.8476 46.8551 22.972Z" fill="#323232" stroke="white" stroke-width="1.5825"/>
<path d="M1.76289 24.5986C1.48756 24.7629 1.18029 24.4403 1.35781 24.1733L3.85658 20.415C3.89523 20.3568 3.93841 20.3018 3.98572 20.2505L8.26893 15.6044L10.7307 13.1483L12.0664 12.0008C12.7087 11.449 13.4167 10.9786 14.1743 10.6004L15.3564 10.0101L17.6227 9.08161L20.3328 8.22427L23.1074 7.57747L24.5511 7.25263C25.3796 7.0662 26.2281 6.9831 27.0771 7.00523L28.7758 7.0495L31.8268 7.42945L34.4244 8.08276L36.3932 8.56276L38.4446 9.32656C38.6752 9.41241 38.8796 9.55662 39.0378 9.74509L39.3102 10.0696C40.0886 10.997 39.2582 12.3856 38.0728 12.1386C37.9495 12.1129 37.8229 12.1056 37.6974 12.117L35.8393 12.2855C35.1286 12.3499 34.4132 12.3402 33.7046 12.2566L31.7657 12.0277L31.1577 11.9228C29.6605 11.6642 28.127 12.1003 26.9898 13.108C26.3784 13.6497 25.909 14.333 25.6226 15.098L25.0216 16.7039C24.7936 17.3129 24.4634 17.8785 24.0452 18.3764C23.1909 19.3933 22.0092 20.081 20.7031 20.3212L19.7643 20.4939L18.9934 20.5869C18.2276 20.6794 17.4962 20.2425 17.2145 19.5244L17.1579 19.3801C17.0507 19.1067 16.8515 18.8793 16.5947 18.7369C16.0318 18.4249 15.3244 18.5863 14.9524 19.1114L13.8722 20.6364C13.5514 21.0893 13.123 21.4555 12.6256 21.7018L10.2195 22.8936L6.59953 25.1794C6.19584 25.4343 5.68529 25.4489 5.26771 25.2174C4.74255 24.9263 4.4832 24.3149 4.63889 23.735L4.77295 23.2356C4.84644 22.9619 4.97815 22.7073 5.15908 22.4891L6.00253 21.4723C6.34769 21.0562 6.75291 20.6938 7.20485 20.3971C7.9422 19.9129 8.55088 19.2569 8.97852 18.4854L9.39494 17.7342C9.4488 17.637 9.48515 17.5311 9.50231 17.4214C9.61705 16.6874 8.88058 16.1132 8.19678 16.4035L7.99162 16.4905C7.80877 16.5682 7.65112 16.6951 7.53629 16.8572L5.22212 20.1235L1.8475 24.5233C1.82432 24.5535 1.79561 24.5791 1.76289 24.5986Z" fill="url(#paint0_linear_611_575)"/>
<path d="M47.4211 19.7392C47.6997 19.539 48.0631 19.8382 47.9202 20.1501L46.2436 23.8085C46.2066 23.8892 46.162 23.9662 46.1104 24.0385L42.7467 28.7526L40.7477 31.2805L39.765 32.3233C39.1235 33.004 38.3922 33.594 37.5912 34.077L36.6237 34.6605L34.4515 35.7516L31.7908 36.8218L29.0094 37.7031L27.4272 38.1916C26.6821 38.4216 25.9132 38.5662 25.1355 38.6225L23.1292 38.7678L19.7987 38.7248L16.8811 38.3823L14.6735 38.1367L12.1789 37.6091C11.9962 37.5705 11.824 37.4931 11.6739 37.3821L11.2719 37.0848C10.3322 36.39 10.8927 34.8987 12.0574 34.9949C12.1575 35.0032 12.2583 34.9984 12.3572 34.9808L14.5072 34.5964C15.1297 34.4852 15.761 34.4315 16.3933 34.4362L18.7179 34.4534L19.9231 34.5175C21.2394 34.5876 22.5175 34.0625 23.4044 33.0874C23.9858 32.4482 24.3656 31.6518 24.4964 30.7977L24.6942 29.506C24.7914 28.8712 25.019 28.2634 25.3628 27.7209C25.9873 26.7353 26.9595 26.0206 28.0865 25.7185L29.337 25.3832L30.1634 25.2121C30.9618 25.0467 31.7838 25.3578 32.2726 26.0103L32.386 26.1617C32.5646 26.4 32.8105 26.5792 33.0921 26.6762C33.7961 26.9186 34.571 26.603 34.9052 25.9376L35.5037 24.7464C35.7605 24.2352 36.1576 23.8077 36.6484 23.514L38.862 22.1892L42.0592 19.757C42.474 19.4415 43.019 19.3539 43.5118 19.5236C44.1617 19.7474 44.5886 20.3701 44.563 21.0569L44.5563 21.2368C44.5446 21.5509 44.451 21.8565 44.2847 22.1233L43.6992 23.0627C43.4302 23.4942 43.0889 23.8763 42.6903 24.192L42.6526 24.2218C42.0138 24.7278 41.5332 25.4062 41.2679 26.1768L41.0434 26.829C40.9964 26.9653 40.9787 27.11 40.9914 27.2537C41.0557 27.9818 41.8384 28.4116 42.4873 28.0751L42.7374 27.9454C42.9647 27.8275 43.149 27.6408 43.264 27.412L44.8522 24.2518L47.3246 19.8471C47.3485 19.8045 47.3814 19.7677 47.4211 19.7392Z" fill="url(#paint1_linear_611_575)"/>
<path d="M35.5684 44.1888C35.8267 44.3985 35.6215 44.8128 35.2982 44.7346L30.7331 43.6299C30.6629 43.6129 30.5942 43.5905 30.5275 43.5627L24.4598 41.0333L21.1821 39.5039L19.538 38.5823C18.8008 38.169 18.1173 37.6665 17.5031 37.0861L16.4668 36.1069L14.7518 34.2269L12.9482 31.8891L11.3274 29.414L10.4697 28.0818C10.0094 27.3669 9.63955 26.5977 9.36855 25.7918L8.79171 24.0763L8.07594 20.968L7.78896 18.2049L7.55661 16.116L7.57216 13.8485C7.57392 13.5918 7.64247 13.3399 7.77107 13.1176L7.99075 12.738C8.62095 11.6488 10.2716 11.9662 10.4529 13.2114C10.4718 13.3415 10.51 13.468 10.5661 13.5868L11.409 15.3725C11.7142 16.0189 11.9511 16.6955 12.116 17.3911L12.592 19.3989L12.7044 20.0196C12.9862 21.5761 13.9604 22.9202 15.3519 23.6725C16.0977 24.0757 16.9307 24.2907 17.7785 24.2988L19.5666 24.316C20.2423 24.3225 20.9119 24.4438 21.5468 24.6748C22.8459 25.1476 23.9402 26.0573 24.6422 27.2483L25.1428 28.0976L25.5082 28.8155C25.8713 29.5289 25.7047 30.3978 25.1035 30.9264L24.983 31.0324C24.754 31.2337 24.6026 31.5087 24.5549 31.8099C24.4506 32.4685 24.8585 33.1001 25.5017 33.276L27.3834 33.7904C27.9392 33.9423 28.4487 34.2297 28.8662 34.6268L30.8891 36.5505L34.4144 39.2702C34.8064 39.5727 35.0021 40.0651 34.9247 40.5542C34.8273 41.1688 34.3236 41.6379 33.7036 41.6914L33.1626 41.738C32.8698 41.7633 32.575 41.7252 32.2983 41.6265L31.0022 41.1639C30.4727 40.975 29.9742 40.7084 29.5231 40.3729C28.7872 39.8257 27.9297 39.465 27.024 39.3215L26.1392 39.1814C26.0257 39.1634 25.91 39.1655 25.7972 39.1875C25.0398 39.3355 24.741 40.259 25.2682 40.8225L25.4258 40.9909C25.5661 41.1409 25.7453 41.249 25.9435 41.3032L29.9622 42.4024L35.4653 44.1333C35.5029 44.1451 35.5379 44.1639 35.5684 44.1888Z" fill="url(#paint2_linear_611_575)"/>
<path d="M19.3299 2.24878C19.126 2.02843 19.3679 1.68606 19.6437 1.80464L23.8191 3.59978C23.8749 3.62374 23.9288 3.65175 23.9804 3.68359L29.3513 6.99504L32.2233 8.92393L33.6402 10.0264C34.2773 10.522 34.8538 11.091 35.3579 11.7215L36.1823 12.7528L37.5294 14.713L38.894 17.0921L40.0663 19.5598L40.6284 20.767C40.9962 21.5568 41.2621 22.3901 41.4198 23.2469L41.6893 24.7111L41.9165 27.5757L41.7889 30.0602L41.707 31.9412L41.3748 33.8812C41.3301 34.142 41.2134 34.385 41.0379 34.5829L40.7884 34.8643C40.0055 35.747 38.5467 35.1871 38.5556 34.0072C38.5566 33.8749 38.537 33.7432 38.4976 33.6169L38.006 32.0429C37.7842 31.3327 37.6401 30.6005 37.5763 29.8593L37.4296 28.156L37.4188 27.7874C37.3736 26.2411 36.629 24.7988 35.3944 23.8665C34.7787 23.4015 34.0654 23.0822 33.3084 22.9328L31.5323 22.5823C30.9122 22.4599 30.3153 22.2405 29.7635 21.9321C28.5892 21.2758 27.669 20.2445 27.1501 19.0034L26.8422 18.2669L26.6054 17.5825C26.3672 16.894 26.6572 16.1337 27.2935 15.7788L27.415 15.7111C27.6599 15.5745 27.8457 15.3524 27.937 15.0873C28.1272 14.5351 27.8686 13.9285 27.3385 13.6833L25.5095 12.8371C25.0321 12.6162 24.613 12.2866 24.2858 11.8747L22.6393 9.80203L19.6796 6.75435C19.3708 6.43637 19.2671 5.97173 19.4114 5.55263C19.5898 5.03462 20.1023 4.70849 20.6471 4.76638L21.2727 4.83285C21.5329 4.86049 21.7849 4.9398 22.014 5.06612L23.2038 5.72211C23.6723 5.98046 24.1025 6.30305 24.4817 6.68053C25.0966 7.29252 25.8421 7.7572 26.6624 8.03963L27.5209 8.33524C27.6116 8.36648 27.7068 8.38269 27.8028 8.38323C28.5194 8.38726 28.9409 7.57968 28.5278 6.9941L28.4158 6.83536C28.3167 6.69479 28.1823 6.58277 28.0262 6.51051L24.3574 4.81256L19.4084 2.30799C19.3789 2.29307 19.3524 2.27302 19.3299 2.24878Z" fill="url(#paint3_linear_611_575)"/>
<g filter="url(#filter0_d_611_575)">
<path d="M20.6417 25.064H27.3017L24.0617 15.632H23.9897L20.6417 25.064ZM21.1817 9.296H26.9777L36.5897 35H30.7217L28.7777 29.276H19.1657L17.1497 35H11.4617L21.1817 9.296Z" fill="white"/>
<path d="M20.6417 25.064L20.2655 24.9304L20.0764 25.4633H20.6417V25.064ZM27.3017 25.064V25.4633H27.861L27.6793 24.9343L27.3017 25.064ZM24.0617 15.632L24.4393 15.5023L24.3467 15.2327H24.0617V15.632ZM23.9897 15.632V15.2327H23.7078L23.6135 15.4984L23.9897 15.632ZM21.1817 9.296V8.89674H20.9059L20.8083 9.15478L21.1817 9.296ZM26.9777 9.296L27.3517 9.15616L27.2547 8.89674H26.9777V9.296ZM36.5897 35V35.3993H37.1653L36.9637 34.8602L36.5897 35ZM30.7217 35L30.3437 35.1284L30.4357 35.3993H30.7217V35ZM28.7777 29.276L29.1558 29.1476L29.0638 28.8767H28.7777V29.276ZM19.1657 29.276V28.8767H18.8831L18.7892 29.1434L19.1657 29.276ZM17.1497 35V35.3993H17.4324L17.5263 35.1326L17.1497 35ZM11.4617 35L11.0883 34.8588L10.8839 35.3993H11.4617V35ZM20.6417 25.4633H27.3017V24.6647H20.6417V25.4633ZM27.6793 24.9343L24.4393 15.5023L23.6841 15.7617L26.9241 25.1937L27.6793 24.9343ZM24.0617 15.2327H23.9897V16.0313H24.0617V15.2327ZM23.6135 15.4984L20.2655 24.9304L21.018 25.1976L24.366 15.7656L23.6135 15.4984ZM21.1817 9.69525H26.9777V8.89674H21.1817V9.69525ZM26.6038 9.43584L36.2158 35.1398L36.9637 34.8602L27.3517 9.15616L26.6038 9.43584ZM36.5897 34.6007H30.7217V35.3993H36.5897V34.6007ZM31.0998 34.8716L29.1558 29.1476L28.3997 29.4044L30.3437 35.1284L31.0998 34.8716ZM28.7777 28.8767H19.1657V29.6753H28.7777V28.8767ZM18.7892 29.1434L16.7732 34.8674L17.5263 35.1326L19.5423 29.4086L18.7892 29.1434ZM17.1497 34.6007H11.4617V35.3993H17.1497V34.6007ZM11.8352 35.1412L21.5552 9.43722L20.8083 9.15478L11.0883 34.8588L11.8352 35.1412Z" fill="black"/>
</g>
<path d="M74.964 26.064H81.624L78.384 16.632H78.312L74.964 26.064ZM75.504 10.296H81.3L90.912 36H85.044L83.1 30.276H73.488L71.472 36H65.784L75.504 10.296ZM110.265 18.936C110.169 18.288 109.953 17.7 109.617 17.172C109.281 16.62 108.861 16.14 108.357 15.732C107.853 15.324 107.277 15.012 106.629 14.796C106.005 14.556 105.345 14.436 104.649 14.436C103.377 14.436 102.297 14.688 101.409 15.192C100.521 15.672 99.8005 16.332 99.2485 17.172C98.6965 17.988 98.2885 18.924 98.0245 19.98C97.7845 21.036 97.6645 22.128 97.6645 23.256C97.6645 24.336 97.7845 25.392 98.0245 26.424C98.2885 27.432 98.6965 28.344 99.2485 29.16C99.8005 29.976 100.521 30.636 101.409 31.14C102.297 31.62 103.377 31.86 104.649 31.86C106.377 31.86 107.721 31.332 108.681 30.276C109.665 29.22 110.265 27.828 110.481 26.1H115.953C115.809 27.708 115.437 29.16 114.837 30.456C114.237 31.752 113.445 32.856 112.461 33.768C111.477 34.68 110.325 35.376 109.005 35.856C107.685 36.336 106.233 36.576 104.649 36.576C102.681 36.576 100.905 36.24 99.3205 35.568C97.7605 34.872 96.4405 33.924 95.3605 32.724C94.2805 31.524 93.4525 30.12 92.8765 28.512C92.3005 26.88 92.0125 25.128 92.0125 23.256C92.0125 21.336 92.3005 19.56 92.8765 17.928C93.4525 16.272 94.2805 14.832 95.3605 13.608C96.4405 12.384 97.7605 11.424 99.3205 10.728C100.905 10.032 102.681 9.684 104.649 9.684C106.065 9.684 107.397 9.888 108.645 10.296C109.917 10.704 111.045 11.304 112.029 12.096C113.037 12.864 113.865 13.824 114.513 14.976C115.161 16.128 115.569 17.448 115.737 18.936H110.265ZM125.464 31.248H130.504C131.32 31.248 132.112 31.116 132.88 30.852C133.648 30.588 134.332 30.156 134.932 29.556C135.532 28.932 136.012 28.128 136.372 27.144C136.732 26.16 136.912 24.96 136.912 23.544C136.912 22.248 136.78 21.084 136.516 20.052C136.276 18.996 135.868 18.096 135.292 17.352C134.716 16.608 133.948 16.044 132.988 15.66C132.052 15.252 130.888 15.048 129.496 15.048H125.464V31.248ZM119.812 10.296H130.9C132.556 10.296 134.092 10.56 135.508 11.088C136.948 11.616 138.184 12.408 139.216 13.464C140.272 14.52 141.088 15.84 141.664 17.424C142.264 19.008 142.564 20.868 142.564 23.004C142.564 24.876 142.324 26.604 141.844 28.188C141.364 29.772 140.632 31.14 139.648 32.292C138.688 33.444 137.476 34.356 136.012 35.028C134.572 35.676 132.868 36 130.9 36H119.812V10.296ZM163.632 18.936C163.536 18.288 163.32 17.7 162.984 17.172C162.648 16.62 162.228 16.14 161.724 15.732C161.22 15.324 160.644 15.012 159.996 14.796C159.372 14.556 158.712 14.436 158.016 14.436C156.744 14.436 155.664 14.688 154.776 15.192C153.888 15.672 153.168 16.332 152.616 17.172C152.064 17.988 151.656 18.924 151.392 19.98C151.152 21.036 151.032 22.128 151.032 23.256C151.032 24.336 151.152 25.392 151.392 26.424C151.656 27.432 152.064 28.344 152.616 29.16C153.168 29.976 153.888 30.636 154.776 31.14C155.664 31.62 156.744 31.86 158.016 31.86C159.744 31.86 161.088 31.332 162.048 30.276C163.032 29.22 163.632 27.828 163.848 26.1H169.32C169.176 27.708 168.804 29.16 168.204 30.456C167.604 31.752 166.812 32.856 165.828 33.768C164.844 34.68 163.692 35.376 162.372 35.856C161.052 36.336 159.6 36.576 158.016 36.576C156.048 36.576 154.272 36.24 152.688 35.568C151.128 34.872 149.808 33.924 148.728 32.724C147.648 31.524 146.82 30.12 146.244 28.512C145.668 26.88 145.38 25.128 145.38 23.256C145.38 21.336 145.668 19.56 146.244 17.928C146.82 16.272 147.648 14.832 148.728 13.608C149.808 12.384 151.128 11.424 152.688 10.728C154.272 10.032 156.048 9.684 158.016 9.684C159.432 9.684 160.764 9.888 162.012 10.296C163.284 10.704 164.412 11.304 165.396 12.096C166.404 12.864 167.232 13.824 167.88 14.976C168.528 16.128 168.936 17.448 169.104 18.936H163.632ZM172.855 30.456H178.507V36H172.855V30.456ZM195.871 26.64C195.871 25.872 195.799 25.14 195.655 24.444C195.511 23.724 195.259 23.1 194.899 22.572C194.563 22.02 194.119 21.576 193.567 21.24C193.015 20.904 192.319 20.736 191.479 20.736C190.639 20.736 189.931 20.904 189.355 21.24C188.779 21.576 188.311 22.02 187.951 22.572C187.615 23.124 187.363 23.76 187.195 24.48C187.051 25.176 186.979 25.908 186.979 26.676C186.979 27.396 187.063 28.116 187.231 28.836C187.399 29.556 187.663 30.204 188.023 30.78C188.407 31.332 188.875 31.788 189.427 32.148C190.003 32.484 190.687 32.652 191.479 32.652C192.319 32.652 193.015 32.484 193.567 32.148C194.143 31.812 194.599 31.368 194.935 30.816C195.271 30.24 195.511 29.592 195.655 28.872C195.799 28.152 195.871 27.408 195.871 26.64ZM195.943 33.624H195.871C195.271 34.632 194.479 35.364 193.495 35.82C192.535 36.252 191.443 36.468 190.219 36.468C188.827 36.468 187.603 36.204 186.547 35.676C185.491 35.124 184.615 34.392 183.919 33.48C183.247 32.544 182.731 31.476 182.371 30.276C182.035 29.076 181.867 27.828 181.867 26.532C181.867 25.284 182.035 24.084 182.371 22.932C182.731 21.756 183.247 20.724 183.919 19.836C184.615 18.948 185.479 18.24 186.511 17.712C187.543 17.16 188.743 16.884 190.111 16.884C191.215 16.884 192.259 17.124 193.243 17.604C194.251 18.06 195.043 18.744 195.619 19.656H195.691V10.296H200.803V36H195.943V33.624ZM209.923 14.508H204.811V10.296H209.923V14.508ZM204.811 17.388H209.923V36H204.811V17.388ZM222.624 31.608C223.344 31.608 223.98 31.464 224.532 31.176C225.084 30.888 225.54 30.504 225.9 30.024C226.26 29.544 226.524 29.004 226.692 28.404C226.884 27.78 226.98 27.132 226.98 26.46C226.98 25.692 226.908 24.972 226.764 24.3C226.62 23.604 226.38 22.992 226.044 22.464C225.708 21.936 225.264 21.516 224.712 21.204C224.16 20.892 223.464 20.736 222.624 20.736C221.904 20.736 221.28 20.88 220.752 21.168C220.248 21.456 219.816 21.852 219.456 22.356C219.12 22.836 218.868 23.4 218.7 24.048C218.556 24.672 218.484 25.332 218.484 26.028C218.484 26.7 218.544 27.372 218.664 28.044C218.808 28.692 219.036 29.28 219.348 29.808C219.684 30.336 220.116 30.768 220.644 31.104C221.172 31.44 221.832 31.608 222.624 31.608ZM231.84 34.812C231.84 35.556 231.732 36.408 231.516 37.368C231.324 38.328 230.892 39.216 230.22 40.032C229.548 40.872 228.576 41.58 227.304 42.156C226.032 42.732 224.328 43.02 222.192 43.02C221.28 43.02 220.344 42.9 219.384 42.66C218.448 42.444 217.584 42.096 216.792 41.616C216.024 41.136 215.376 40.512 214.848 39.744C214.344 39 214.056 38.1 213.984 37.044H219.06C219.3 38.004 219.768 38.664 220.464 39.024C221.16 39.408 221.964 39.6 222.876 39.6C224.316 39.6 225.36 39.168 226.008 38.304C226.68 37.44 227.004 36.348 226.98 35.028V32.58H226.908C226.356 33.564 225.564 34.296 224.532 34.776C223.524 35.232 222.456 35.46 221.328 35.46C219.936 35.46 218.736 35.22 217.728 34.74C216.72 34.236 215.892 33.564 215.244 32.724C214.596 31.86 214.116 30.864 213.804 29.736C213.516 28.584 213.372 27.372 213.372 26.1C213.372 24.9 213.54 23.748 213.876 22.644C214.236 21.516 214.752 20.532 215.424 19.692C216.096 18.828 216.924 18.144 217.908 17.64C218.916 17.136 220.068 16.884 221.364 16.884C222.588 16.884 223.656 17.112 224.568 17.568C225.504 18.024 226.284 18.792 226.908 19.872H226.98V17.388H231.84V34.812ZM241.212 14.508H236.1V10.296H241.212V14.508ZM236.1 17.388H241.212V36H236.1V17.388ZM251.717 17.388H255.461V20.808H251.717V30.024C251.717 30.888 251.861 31.464 252.149 31.752C252.437 32.04 253.013 32.184 253.877 32.184C254.165 32.184 254.441 32.172 254.705 32.148C254.969 32.124 255.221 32.088 255.461 32.04V36C255.029 36.072 254.549 36.12 254.021 36.144C253.493 36.168 252.977 36.18 252.473 36.18C251.681 36.18 250.925 36.12 250.205 36C249.509 35.904 248.885 35.7 248.333 35.388C247.805 35.076 247.385 34.632 247.073 34.056C246.761 33.48 246.605 32.724 246.605 31.788V20.808H243.509V17.388H246.605V11.808H251.717V17.388ZM257.677 23.112C257.749 21.912 258.049 20.916 258.577 20.124C259.105 19.332 259.777 18.696 260.593 18.216C261.409 17.736 262.321 17.4 263.329 17.208C264.361 16.992 265.393 16.884 266.425 16.884C267.361 16.884 268.309 16.956 269.269 17.1C270.229 17.22 271.105 17.472 271.897 17.856C272.689 18.24 273.337 18.78 273.841 19.476C274.345 20.148 274.597 21.048 274.597 22.176V31.86C274.597 32.7 274.645 33.504 274.741 34.272C274.837 35.04 275.005 35.616 275.245 36H270.061C269.965 35.712 269.881 35.424 269.809 35.136C269.761 34.824 269.725 34.512 269.701 34.2C268.885 35.04 267.925 35.628 266.821 35.964C265.717 36.3 264.589 36.468 263.437 36.468C262.549 36.468 261.721 36.36 260.953 36.144C260.185 35.928 259.513 35.592 258.937 35.136C258.361 34.68 257.905 34.104 257.569 33.408C257.257 32.712 257.101 31.884 257.101 30.924C257.101 29.868 257.281 29.004 257.641 28.332C258.025 27.636 258.505 27.084 259.081 26.676C259.681 26.268 260.353 25.968 261.097 25.776C261.865 25.56 262.633 25.392 263.401 25.272C264.169 25.152 264.925 25.056 265.669 24.984C266.413 24.912 267.073 24.804 267.649 24.66C268.225 24.516 268.681 24.312 269.017 24.048C269.353 23.76 269.509 23.352 269.485 22.824C269.485 22.272 269.389 21.84 269.197 21.528C269.029 21.192 268.789 20.94 268.477 20.772C268.189 20.58 267.841 20.46 267.433 20.412C267.049 20.34 266.629 20.304 266.173 20.304C265.165 20.304 264.373 20.52 263.797 20.952C263.221 21.384 262.885 22.104 262.789 23.112H257.677ZM269.485 26.892C269.269 27.084 268.993 27.24 268.657 27.36C268.345 27.456 267.997 27.54 267.613 27.612C267.253 27.684 266.869 27.744 266.461 27.792C266.053 27.84 265.645 27.9 265.237 27.972C264.853 28.044 264.469 28.14 264.085 28.26C263.725 28.38 263.401 28.548 263.113 28.764C262.849 28.956 262.633 29.208 262.465 29.52C262.297 29.832 262.213 30.228 262.213 30.708C262.213 31.164 262.297 31.548 262.465 31.86C262.633 32.172 262.861 32.424 263.149 32.616C263.437 32.784 263.773 32.904 264.157 32.976C264.541 33.048 264.937 33.084 265.345 33.084C266.353 33.084 267.133 32.916 267.685 32.58C268.237 32.244 268.645 31.848 268.909 31.392C269.173 30.912 269.329 30.432 269.377 29.952C269.449 29.472 269.485 29.088 269.485 28.8V26.892ZM278.709 10.296H283.821V36H278.709V10.296Z" fill="white"/>
<defs>
<filter id="filter0_d_611_575" x="8.00033" y="5.06542" width="39.7428" height="40.3188" filterUnits="userSpaceOnUse" color-interpolation-filters="sRGB">
<feFlood flood-opacity="0" result="BackgroundImageFix"/>
<feColorMatrix in="SourceAlpha" type="matrix" values="0 0 0 0 0 0 0 0 0 0 0 0 0 0 0 0 0 0 127 0" result="hardAlpha"/>
<feOffset dx="3.846" dy="3.0768"/>
<feGaussianBlur stdDeviation="3.6537"/>
<feComposite in2="hardAlpha" operator="out"/>
<feColorMatrix type="matrix" values="0 0 0 0 0 0 0 0 0 0 0 0 0 0 0 0 0 0 0.12 0"/>
<feBlend mode="normal" in2="BackgroundImageFix" result="effect1_dropShadow_611_575"/>
<feBlend mode="normal" in="SourceGraphic" in2="effect1_dropShadow_611_575" result="shape"/>
</filter>
<linearGradient id="paint0_linear_611_575" x1="6.54451" y1="10.1069" x2="33.9525" y2="25.2995" gradientUnits="userSpaceOnUse">
<stop stop-opacity="0"/>
<stop offset="1" stop-color="#D9D9D9"/>
</linearGradient>
<linearGradient id="paint1_linear_611_575" x1="45.9452" y1="33.677" x2="13.0922" y2="22.3648" gradientUnits="userSpaceOnUse">
<stop stop-opacity="0"/>
<stop offset="1" stop-color="#D9D9D9"/>
</linearGradient>
<linearGradient id="paint2_linear_611_575" x1="19.7011" y1="44.6611" x2="24.7843" y2="12.5671" gradientUnits="userSpaceOnUse">
<stop stop-opacity="0"/>
<stop offset="1" stop-color="#D9D9D9"/>
</linearGradient>
<linearGradient id="paint3_linear_611_575" x1="34.364" y1="4.64458" x2="24.9417" y2="32.009" gradientUnits="userSpaceOnUse">
<stop stop-opacity="0"/>
<stop offset="1" stop-color="#D9D9D9"/>
</linearGradient>
</defs>
</svg>
